<?xml version="1.0" encoding="utf-8"?>
<!-- Uploaded to: SVG Repo, www.svgrepo.com, Generator: SVG Repo Mixer Tools -->
<svg width="800px" height="800px" viewBox="0 0 1024 1024" class="icon"  version="1.1" xmlns="http://www.w3.org/2000/svg"><path d="M781.1 300.7c-7.9 0-14.3-6.4-14.3-14.3v-44.7c0-7.9 6.4-14.3 14.3-14.3s14.3 6.4 14.3 14.3v44.7c0 7.9-6.4 14.3-14.3 14.3zM242.5 300.7c-7.9 0-14.3-6.4-14.3-14.3v-44.7c0-7.9 6.4-14.3 14.3-14.3s14.3 6.4 14.3 14.3v44.7c0.1 7.9-6.4 14.3-14.3 14.3z" fill="#FF5959" /><path d="M561.8 116.1c0-10.5-8.6-19.1-19.1-19.1h-61.8c-10.5 0-19.1 8.6-19.1 19.1v15.1c0 10.5 8.6 19.1 19.1 19.1h61.8c10.5 0 19.1-8.6 19.1-19.1v-15.1z" fill="#A93439" /><path d="M511.8 131.3c-118.9 0-220.2 75-259.3 180.3h518.6C732 206.3 630.7 131.3 511.8 131.3z" fill="#FF5959" /><path d="M513.3 239.8c-7.9 0-14.3-6.4-14.3-14.3v-53.8c0-7.9 6.4-14.3 14.3-14.3s14.3 6.4 14.3 14.3v53.8c0 7.9-6.4 14.3-14.3 14.3zM415 239.8c-7.9 0-14.3-6.4-14.3-14.3v-30.1c0-7.9 6.4-14.3 14.3-14.3s14.3 6.4 14.3 14.3v30.1c0.1 7.9-6.3 14.3-14.3 14.3zM611.5 239.8c-7.9 0-14.3-6.4-14.3-14.3v-30.1c0-7.9 6.4-14.3 14.3-14.3s14.3 6.4 14.3 14.3v30.1c0.1 7.9-6.4 14.3-14.3 14.3z" fill="" /><path d="M860.7 418.5H746.6V312H277v106.5H162.9c-21 0-38.2 17.2-38.2 38.2v445h774.2v-445c0-21-17.2-38.2-38.2-38.2z" fill="#FF5959" /><path d="M797 716.9h82.8v39.8H797zM168.1 813.2h82.8V853h-82.8zM151.2 647H234v39.8h-82.8zM289 553.4h82.8v39.8H289zM231.8 436.9h82.8v39.8h-82.8zM643 388.4h82.8v39.8H643zM570.2 528H653v39.8h-82.8zM660 627.1h82.8v39.8H660zM857.5 493.9h41.4v39.8h-41.4zM660 813.2h82.8V853H660zM277 312h469.5v60.6H277z" fill="" /><path d="M322.3 647h379v254.6h-379z" fill="#D1D3D3" /><path d="M322.3 711h379v28.6h-379zM322.3 798.9h379v28.6h-379z" fill="" /><path d="M612.4 503.1c0 55.6-45 100.6-100.6 100.6s-100.6-45-100.6-100.6V414c0-10.5 8.6-19.1 19.1-19.1h163c10.5 0 19.1 8.6 19.1 19.1v89.1z" fill="#FFB819" /><path d="M457.1 503.1c0 30.2 24.6 54.7 54.7 54.7s54.7-24.6 54.7-54.7v-52.8c0-7.4-6-13.4-13.4-13.4h-82.8c-7.4 0-13.4 6-13.4 13.4v52.8z" fill="#F2D383" /><path d="M819.6 323.7c0 10.5-8.6 19.1-19.1 19.1H223.2c-10.5 0-19.1-8.6-19.1-19.1v-40.6c0-10.5 8.6-19.1 19.1-19.1h577.3c10.5 0 19.1 8.6 19.1 19.1v40.6z" fill="#A93439" /><path d="M959.4 919.3c0 4.2-3.5 7.7-7.7 7.7H72c-4.2 0-7.7-3.5-7.7-7.7v-27.6c0-4.2 3.5-7.7 7.7-7.7h879.7c4.2 0 7.7 3.5 7.7 7.7v27.6z" fill="#333E48" /><path d="M283.1 884h457.4v43H283.1z" fill="#A4A9AD" /><path d="M936.4 884c0-45.7-37.1-82.8-82.8-82.8-45.7 0-82.8 37.1-82.8 82.8h165.6zM241.3 884c0-40.4-32.8-73.2-73.2-73.2S94.8 843.5 94.8 884h146.5z" fill="#00AD68" /><path d="M831 561.7c0 10.5-8.6 19.1-19.1 19.1h-99.6c-10.5 0-19.1-8.6-19.1-19.1v-48.4c0-10.5 8.6-19.1 19.1-19.1h99.6c10.5 0 19.1 8.6 19.1 19.1v48.4z" fill="#FFFFFF" /><path d="M811.9 494.2h-99.6c-10.5 0-19.1 8.6-19.1 19.1v25.8c0-10.5 8.6-19.1 19.1-19.1h99.6c10.5 0 19.1 8.6 19.1 19.1v-25.8c0-10.5-8.6-19.1-19.1-19.1z" fill="" /><path d="M712.3 508.5c-2.6 0-4.8 2.2-4.8 4.8v48.4c0 2.6 2.2 4.8 4.8 4.8h99.6c2.6 0 4.8-2.2 4.8-4.8v-48.4c0-2.6-2.2-4.8-4.8-4.8h-99.6z m99.6 86.6h-99.6c-18.4 0-33.4-15-33.4-33.4v-48.4c0-18.4 15-33.4 33.4-33.4h99.6c18.4 0 33.4 15 33.4 33.4v48.4c0 18.4-15 33.4-33.4 33.4z" fill="#A93439" /><path d="M192.6 561.7c0 10.5 8.6 19.1 19.1 19.1h99.6c10.5 0 19.1-8.6 19.1-19.1v-48.4c0-10.5-8.6-19.1-19.1-19.1h-99.6c-10.5 0-19.1 8.6-19.1 19.1v48.4z" fill="#FFFFFF" /><path d="M211.7 494.2h99.6c10.5 0 19.1 8.6 19.1 19.1v25.8c0-10.5-8.6-19.1-19.1-19.1h-99.6c-10.5 0-19.1 8.6-19.1 19.1v-25.8c0-10.5 8.6-19.1 19.1-19.1z" fill="" /><path d="M211.7 508.5c-2.6 0-4.8 2.2-4.8 4.8v48.4c0 2.6 2.2 4.8 4.8 4.8h99.6c2.6 0 4.8-2.2 4.8-4.8v-48.4c0-2.6-2.2-4.8-4.8-4.8h-99.6z m99.6 86.6h-99.6c-18.4 0-33.4-15-33.4-33.4v-48.4c0-18.4 15-33.4 33.4-33.4h99.6c18.4 0 33.4 15 33.4 33.4v48.4c0 18.4-15 33.4-33.4 33.4z" fill="#A93439" /></svg>