<?xml version="1.0" encoding="utf-8"?>
<!-- Uploaded to: SVG Repo, www.svgrepo.com, Generator: SVG Repo Mixer Tools -->
<svg width="800px" height="800px" viewBox="0 0 1024 1024" class="icon"  version="1.1" xmlns="http://www.w3.org/2000/svg"><path d="M325.7 260.8L185 207.6V314z" fill="#0071CE" /><path d="M185 207.6V314l40.7-15.4V223z" fill="" /><path d="M185 396.4c-7.9 0-14.3-6.4-14.3-14.3V204.6c0-7.9 6.4-14.3 14.3-14.3s14.3 6.4 14.3 14.3v177.6c-0.1 7.9-6.5 14.2-14.3 14.2z" fill="#333E48" /><path d="M608.2 260.8l-140.7-53.2V314z" fill="#FFB819" /><path d="M467.5 207.6V314l40.7-15.4V223z" fill="" /><path d="M467.5 396.4c-7.9 0-14.3-6.4-14.3-14.3V204.6c0-7.9 6.4-14.3 14.3-14.3s14.3 6.4 14.3 14.3v177.6c-0.1 7.9-6.4 14.2-14.3 14.2z" fill="#333E48" /><path d="M890.8 260.8L750 207.6V314z" fill="#7CDFA8" /><path d="M750 207.6V314l40.7-15.4V223z" fill="" /><path d="M750 396.4c-7.9 0-14.3-6.4-14.3-14.3V204.6c0-7.9 6.4-14.3 14.3-14.3s14.3 6.4 14.3 14.3v177.6c0 7.9-6.4 14.2-14.3 14.2z" fill="#333E48" /><path d="M860.9 447.9H163.1L209 813.3h606z" fill="#A4A9AD" /><path d="M186.8 636.1l11.4 90.8h627.7l11.4-90.8z" fill="#0071CE" /><path d="M163.1 447.9l6.9 54.8h684l6.9-54.8z" fill="" /><path d="M867.9 423.1v326.8L710 416.9l-12.9 6.1-12.9-6.1-157.9 333V423.1h-28.5v326.8l-157.9-333L327 423l-12.9-6.1-157.9 333V423.1h-28.5v390.2c0 6.7 4.6 12.5 11.1 13.9 1 0.2 2.1 0.4 3.1 0.4 5.4 0 10.5-3.1 12.9-8.2l157.9-333v326.8h28.5V486.5l157.9 333c2.4 5 7.4 8.2 12.9 8.2s10.5-3.2 12.9-8.2l157.9-333v326.8h28.5V486.5l157.9 333c2.4 5.1 7.5 8.2 12.9 8.2 1 0 2.1-0.1 3.1-0.4 6.5-1.5 11.1-7.2 11.1-13.9V423.1h-28.4z" fill="#333E48" /><path d="M669.5 447.9L648.1 493h31.6l3.1-6.6v6.6h28.5v-6.6l3.1 6.6H746l-21.4-45.2h-55.1z m198.4 0V493h28.5v-45.2h-28.5z m-568.5 0L278 493h31.6l3.1-6.6v6.6h28.5v-6.6l3.1 6.6h31.6l-21.4-45.2h-55.1zM127.6 493h28.5v-45.2h-28.5V493z m370.1 0h28.5v-45.2h-28.5V493z" fill="" /><path d="M882.1 461.3H141.9c-26.3 0-47.6-21.3-47.6-47.6s21.3-47.6 47.6-47.6h740.2c26.3 0 47.6 21.3 47.6 47.6s-21.3 47.6-47.6 47.6z" fill="#00B3E3" /><path d="M957.9 827c0 4.2-3.5 7.7-7.7 7.7H73.8c-4.2 0-7.7-3.5-7.7-7.7v-27.5c0-4.2 3.5-7.7 7.7-7.7h876.4c4.2 0 7.7 3.5 7.7 7.7V827z" fill="#218649" /><path d="M269.2 791.9c0-45.5-36.9-82.4-82.4-82.4s-82.4 36.9-82.4 82.4h164.8z" fill="#00AD68" /></svg>